<svg xmlns="http://www.w3.org/2000/svg" width="262" height="70" viewBox="0 0 262 70"><path fill="#fff" d="M80.904 21.393c0-1.016.35-1.87 1.048-2.568.698-.7 1.556-1.05 2.57-1.05s1.87.35 2.57 1.05c.698.697 1.048 1.553 1.048 2.568s-.35 1.873-1.05 2.572c-.697.697-1.552 1.047-2.567 1.047s-1.873-.35-2.57-1.047c-.7-.7-1.05-1.556-1.05-2.572m.145 9.428c0-.92.237-1.73.713-2.43.478-.694 1.398-1.044 2.764-1.044 1.362 0 2.283.35 2.76 1.045.476.7.713 1.51.713 2.43v19.186c0 .922-.237 1.73-.713 2.426-.477.7-1.397 1.047-2.76 1.047-1.365 0-2.286-.35-2.763-1.048-.475-.695-.712-1.504-.712-2.426V30.82M92.297 21.82c0-.792.11-1.425.332-1.9.254-.507.586-.905 1-1.192.413-.283.857-.475 1.333-.57.508-.125 1.03-.19 1.57-.19h2.287c1.206 0 2.125.27 2.76.808.666.508 1.206 1.432 1.62 2.762l6.808 21.994h.095l6.713-21.994c.41-1.33.936-2.254 1.57-2.762.667-.537 1.604-.807 2.81-.807h2.19c.508 0 1.015.063 1.523.188.507.096.965.287 1.378.57.415.287.73.686.95 1.193.257.476.383 1.108.383 1.9v27.854c0 .984-.27 1.87-.81 2.664-.508.762-1.394 1.14-2.665 1.14-1.27 0-2.172-.378-2.712-1.14-.51-.793-.764-1.68-.764-2.664V28.442h-.095l-7.283 22.75c-.256.83-.667 1.415-1.24 1.767-.57.343-1.268.52-2.092.52-.828 0-1.523-.177-2.097-.52-.572-.353-.982-.94-1.24-1.767l-7.282-22.75h-.093v21.23c0 .985-.27 1.872-.81 2.665-.508.762-1.397 1.14-2.666 1.14-1.27 0-2.174-.378-2.714-1.14-.508-.793-.76-1.68-.76-2.664V21.82M147.743 41.154c-.383.348-.87.598-1.477.758-.602.156-1.11.27-1.523.336l-2.523.375c-1.457.227-2.57.59-3.332 1.098s-1.145 1.286-1.145 2.333c0 .793.336 1.477 1 2.047.7.54 1.652.81 2.86.81.948 0 1.808-.142 2.57-.427s1.394-.668 1.9-1.145c.54-.473.954-1.016 1.24-1.617.284-.604.43-1.222.43-1.854v-2.712m6.95 4.992c0 .73.034 1.336.097 1.812.094.477.176.887.234 1.234.098.32.176.605.238.86.098.222.145.472.145.76 0 .794-.316 1.446-.95 1.954-.64.477-1.366.715-2.19.715-1.492 0-2.54-.397-3.145-1.194-.602-.824-.918-1.773-.95-2.855-1.366 1.524-2.843 2.59-4.43 3.192-1.554.574-3.25.86-5.093.86-.985 0-1.95-.18-2.907-.524-.918-.32-1.762-.777-2.52-1.383-.73-.602-1.32-1.332-1.763-2.188-.445-.895-.666-1.89-.666-3 0-1.43.253-2.62.76-3.574.51-.98 1.208-1.762 2.1-2.332.886-.6 1.917-1.06 3.093-1.378 1.172-.316 2.426-.555 3.758-.715l4.238-.477c.414-.03.797-.098 1.145-.19.38-.095.695-.235.95-.427.284-.19.51-.43.667-.715.16-.316.238-.73.238-1.236 0-1.016-.44-1.744-1.332-2.19-.858-.444-1.874-.667-3.046-.667-1.3 0-2.316.207-3.05.62-.728.382-1.345.81-1.853 1.284-.507.476-.983.92-1.43 1.332-.444.38-1.015.57-1.714.57-.887 0-1.605-.254-2.14-.762-.54-.54-.81-1.173-.81-1.906 0-.697.234-1.412.71-2.143.478-.726 1.177-1.394 2.1-1.997.948-.635 2.108-1.143 3.472-1.523 1.395-.412 2.984-.617 4.762-.617 1.652 0 3.172.14 4.57.43 1.398.252 2.586.68 3.57 1.283.984.572 1.746 1.316 2.285 2.238.57.887.855 1.953.855 3.188v11.664M157.325 35.106c0-1.428.32-2.633.953-3.62.633-.983 1.445-1.776 2.426-2.378 1.02-.637 2.145-1.08 3.38-1.332 1.24-.29 2.46-.43 3.667-.43 1.333 0 2.634.127 3.907.38 1.266.255 2.395.618 3.38 1.093 1.015.446 1.823 1 2.425 1.667.605.635.906 1.348.906 2.145 0 .824-.254 1.537-.762 2.14s-1.223.907-2.145.907c-.663 0-1.218-.16-1.663-.48-.41-.345-.855-.714-1.332-1.095-.445-.41-.984-.775-1.62-1.094-.634-.347-1.49-.522-2.57-.522-1.204 0-2.173.176-2.903.523s-1.098.888-1.098 1.62c0 .826.352 1.376 1.05 1.666.7.285 1.587.555 2.665.81l2.9.667c.985.22 1.985.504 3 .855 1.052.348 1.985.81 2.813 1.38.824.57 1.504 1.284 2.047 2.144.54.824.81 1.84.81 3.047 0 1.43-.317 2.663-.954 3.71-.602 1.016-1.414 1.875-2.43 2.574-1.016.664-2.172 1.156-3.473 1.477-1.27.345-2.555.52-3.855.52-1.59 0-3.082-.175-4.477-.52-1.394-.32-2.616-.75-3.667-1.284-1.047-.574-1.87-1.242-2.473-2-.605-.766-.906-1.574-.906-2.434 0-.758.223-1.422.664-1.996.45-.602 1.16-.906 2.145-.906.762 0 1.383.227 1.86.668.472.445.983.938 1.522 1.477.566.54 1.22 1.03 1.953 1.477.758.44 1.79.664 3.094.664 1.234 0 2.22-.234 2.95-.715.73-.476 1.093-1.077 1.093-1.808 0-.887-.363-1.477-1.094-1.762-.698-.285-1.663-.586-2.9-.902l-4.1-1c-1.015-.254-1.964-.56-2.854-.906-.855-.348-1.617-.81-2.28-1.38-.638-.573-1.146-1.253-1.524-2.046-.35-.827-.527-1.827-.527-3M183.513 32.534h-1.188c-.988 0-1.7-.19-2.145-.57-.414-.38-.617-.953-.617-1.713 0-.763.203-1.333.617-1.714.445-.383 1.156-.572 2.145-.572h1.188v-4.236c0-1.143.316-2 .95-2.572.64-.602 1.48-.904 2.526-.904s1.886.303 2.52.904c.64.572.956 1.43.956 2.572v4.236h2.094c1.016 0 1.793.176 2.332.523.54.352.81.938.81 1.764 0 .825-.27 1.413-.81 1.76-.54.35-1.316.524-2.332.524h-2.094v13.902c0 1.078.602 1.617 1.81 1.617h1c.757 0 1.347.207 1.76.62.442.41.665.98.665 1.716 0 2.06-1.68 3.09-5.046 3.09-2.535 0-4.363-.51-5.473-1.524-1.112-1.047-1.667-2.602-1.667-4.664V32.534M215.083 37.72c-.19-1.616-.824-2.93-1.906-3.948-1.078-1.047-2.395-1.57-3.95-1.57-1.745 0-3.14.49-4.19 1.477-1.047.983-1.762 2.33-2.14 4.04h12.186m-12.187 4c0 1.845.555 3.364 1.668 4.57 1.14 1.173 2.727 1.763 4.758 1.763 1.305 0 2.316-.172 3.047-.523.76-.348 1.382-.73 1.858-1.14.504-.446.98-.845 1.426-1.192.445-.383 1.016-.574 1.715-.574.823 0 1.507.305 2.046.906.54.57.81 1.176.81 1.81 0 1.05-.384 1.968-1.142 2.76-.734.763-1.652 1.396-2.766 1.903-1.074.477-2.25.844-3.52 1.098s-2.43.38-3.477.38c-2.444 0-4.507-.363-6.19-1.094-1.68-.762-3.06-1.746-4.14-2.953-1.08-1.203-1.856-2.555-2.333-4.047-.477-1.488-.715-3-.715-4.523 0-2.027.3-3.87.906-5.52.602-1.647 1.46-3.06 2.57-4.235 1.14-1.205 2.523-2.127 4.14-2.762 1.622-.666 3.466-.998 5.524-.998 2 0 3.777.332 5.332.998 1.555.635 2.87 1.49 3.953 2.572 1.078 1.047 1.887 2.254 2.426 3.617.57 1.363.86 2.76.86 4.187 0 1.207-.224 2.016-.67 2.434-.413.375-1.206.566-2.378.566h-15.71M224.188 30.58c0-1.044.305-1.84.906-2.38.602-.568 1.348-.854 2.234-.854.89 0 1.637.285 2.238.854.605.54.906 1.336.906 2.38v2.67h.094c.19-.73.445-1.444.762-2.142.32-.7.7-1.318 1.145-1.86.477-.57 1.016-1.028 1.617-1.378.633-.35 1.38-.523 2.238-.523 1.113 0 2.016.316 2.715.95.727.636 1.094 1.446 1.094 2.43 0 .634-.098 1.173-.29 1.616-.187.447-.456.81-.804 1.096-.316.255-.684.444-1.094.57-.415.128-.83.192-1.243.192h-1.238c-1.396 0-2.474.572-3.235 1.712-.73 1.11-1.094 3.11-1.094 5.998v8.094c0 .922-.237 1.73-.718 2.426-.473.7-1.39 1.047-2.758 1.047-1.363 0-2.285-.35-2.762-1.048-.477-.695-.715-1.504-.715-2.426V30.58M239.767 35.106c0-1.428.316-2.633.953-3.62.633-.983 1.445-1.776 2.426-2.378 1.016-.637 2.145-1.08 3.383-1.332 1.237-.29 2.456-.43 3.663-.43 1.332 0 2.633.127 3.906.38 1.265.255 2.394.618 3.377 1.093 1.016.446 1.824 1 2.426 1.667.605.635.906 1.348.906 2.145 0 .824-.255 1.537-.763 2.14s-1.22.907-2.145.907c-.664 0-1.218-.16-1.663-.48-.415-.345-.856-.714-1.337-1.095-.44-.41-.98-.775-1.617-1.094-.633-.347-1.492-.522-2.57-.522-1.207 0-2.172.176-2.902.523s-1.098.888-1.098 1.62c0 .826.352 1.376 1.05 1.666.7.285 1.583.555 2.665.81l2.903.667c.984.22 1.984.504 3 .855 1.05.348 1.983.81 2.812 1.38.824.57 1.504 1.284 2.043 2.144.543.824.812 1.84.812 3.047 0 1.43-.32 2.663-.953 3.71-.602 1.016-1.414 1.875-2.43 2.574-1.016.664-2.17 1.156-3.476 1.477-1.265.345-2.55.52-3.85.52-1.59 0-3.083-.175-4.48-.52-1.392-.32-2.614-.75-3.665-1.284-1.047-.574-1.87-1.242-2.477-2-.602-.766-.902-1.574-.902-2.434 0-.758.223-1.422.664-1.996.45-.602 1.16-.906 2.145-.906.762 0 1.38.227 1.86.668.472.445.983.938 1.522 1.477.57.54 1.223 1.03 1.95 1.477.76.44 1.792.664 3.097.664 1.234 0 2.22-.234 2.95-.715.73-.476 1.093-1.077 1.093-1.808 0-.887-.363-1.477-1.094-1.762-.7-.285-1.668-.586-2.902-.902l-4.097-1c-1.016-.254-1.965-.56-2.855-.906-.855-.348-1.617-.81-2.28-1.38-.642-.573-1.15-1.253-1.528-2.046-.348-.827-.523-1.827-.523-3"/><path fill="#fff" d="M32.887.393L1.552 15.396s-.188.104-.4.236c-.18.115-.374.256-.48.324-.688.456-.672 1.132-.672 1.132L.022 52.15l.62 1.05 31.992 16.375s.816.305 1.378.305c.62 0 1.32-.445 1.32-.445l31.81-16.195.772-1.44-.005-6.728.01-7.254-.017-3.57-.024-16.98s.01-.382-.227-.737c-.272-.407-2.086-1.257-2.086-1.257L34.72.387l-1.833.006z"/><path fill="#0083CA" d="M57.833 44.537c0 .406.3.578.674.39l8.756-4.437c.372-.188.66-.668.66-1.074l-.016-9.517c0-.405-.272-.58-.645-.392l-8.756 4.44c-.373.187-.674.667-.674 1.073v9.517z"/><path fill="#E67E23" d="M46.292 50.494c0 .406.3.578.674.39l8.757-4.437c.372-.188.673-.672.673-1.074v-9.518c0-.404-.3-.58-.673-.392L46.965 39.9c-.373.19-.674.672-.674 1.074v9.52z"/><path fill="#006CB7" d="M34.66 56.31c0 .407.3.58.673.392l8.757-4.438c.372-.188.674-.668.674-1.074v-9.52c0-.402-.302-.578-.674-.39l-8.757 4.44c-.372.188-.674.668-.674 1.07v9.52z"/><path fill="#0083CA" d="M57.764 31.9c0 .403.29.577.663.39l8.762-4.44c.37-.187.707-.667.707-1.07v-4.694l-.014-1.928-.002-2.9c0-.403-.325-.577-.697-.39l-8.75 4.44c-.373.188-.67.668-.67 1.074V31.9z"/><path fill="#E67E23" d="M46.312 37.756c0 .402.29.578.664.39l8.762-4.436c.372-.19.68-.67.68-1.074v-9.52c0-.404-.312-.578-.685-.39l-8.752 4.438c-.372.188-.668.668-.668 1.072v9.52z"/><path fill="#006CB7" d="M34.68 43.564c0 .402.29.578.663.39l8.763-4.437c.37-.19.68-.672.68-1.074v-9.52c0-.403-.313-.577-.686-.39l-8.75 4.44c-.374.187-.67.667-.67 1.073v9.518z"/><path fill="#B13432" d="M54.534 21.002c.368.18.378.47.02.652l-8.46 4.262c-.36.184-.954.184-1.323 0l-8.638-4.285c-.365-.18-.366-.472-.004-.65l8.48-4.2c.356-.18.94-.18 1.305 0l8.62 4.222z"/><path fill="#00A0DC" d="M65.673 15.316c.368.178.382.465.032.64l-8.294 4.158c-.354.18-.94.18-1.31 0l-8.617-4.21c-.364-.18-.37-.466-.014-.642l8.31-4.12c.352-.17.93-.17 1.293.005l8.6 4.17zM43.155 26.74c.368.183.374.48.01.663l-8.63 4.352c-.37.186-.97.186-1.34 0l-8.66-4.363c-.364-.184-.36-.48.01-.664l8.647-4.285c.364-.18.955-.18 1.32.002l8.643 4.294zM42.978 15.312c.363.178.367.465.01.64l-8.48 4.19c-.363.18-.953.18-1.316 0l-8.507-4.222c-.36-.178-.355-.465.008-.643l8.497-4.127c.358-.174.938-.172 1.298.004l8.49 4.158z"/><path fill="#2B93D1" d="M54.155 9.744c.362.174.372.455.02.63L45.86 14.48c-.355.176-.94.176-1.3-.002l-8.49-4.148c-.358-.174-.36-.457-.003-.63L44.4 5.65c.353-.17.927-.168 1.284.004l8.47 4.088z"/><path fill="#00A0DC" d="M31.58 20.99c.362.183.36.476-.003.655l-8.65 4.273c-.37.184-.966.184-1.33-.002l-8.527-4.293c-.36-.184-.35-.475.02-.656l8.667-4.21c.365-.177.953-.175 1.312.003l8.51 4.23z"/><path fill="#2B93D1" d="M31.546 9.748c.358.176.357.46 0 .63l-8.5 4.118c-.364.176-.95.176-1.31-.002l-8.38-4.156c-.353-.176-.344-.46.02-.633l8.516-4.057c.36-.17.937-.168 1.29.004l8.364 4.096zM42.75 4.275c.358.172.362.45.01.62L34.426 8.93c-.356.175-.937.173-1.293 0L24.77 4.843c-.354-.172-.35-.45.008-.62L33.13.243c.354-.167.924-.165 1.276.005l8.345 4.025z"/><path fill="#00A0DC" d="M20.12 15.33c.358.178.354.465-.013.643l-8.668 4.2c-.373.18-.965.178-1.323-.002L1.72 15.94c-.354-.178-.34-.467.03-.645l8.684-4.135c.367-.176.95-.174 1.305.002l8.38 4.168z"/><path fill="#E67E23" d="M46.23 63.146c0 .4.303.577.676.39l8.756-4.437c.372-.19.675-.673.675-1.075v-9.52c0-.402-.303-.578-.675-.39l-8.756 4.437c-.373.19-.675.672-.675 1.074v9.52z"/><path fill="#1268B3" d="M10.126 44.537c0 .406-.302.578-.675.39L.696 40.49c-.372-.188-.674-.668-.674-1.074V29.9c0-.405.303-.58.675-.392l8.757 4.44c.373.187.675.667.675 1.073v9.517z"/><path fill="#0E5595" d="M21.637 50.463c0 .402-.3.578-.674.39l-8.757-4.44c-.37-.188-.673-.668-.673-1.07v-9.52c0-.404.302-.58.673-.39l8.757 4.437c.373.188.674.668.674 1.074v9.52z"/><path fill="#06447C" d="M33.233 56.354c0 .402-.302.578-.674.39l-8.76-4.437c-.37-.19-.672-.672-.672-1.078v-9.517c0-.406.302-.578.673-.39l8.76 4.437c.37.188.673.668.673 1.074v9.52z"/><path fill="#1268B3" d="M10.105 31.8c0 .405-.29.58-.664.392l-8.76-4.44c-.373-.187-.68-.67-.68-1.074V17.16c0-.404.312-.58.684-.393l8.752 4.442c.373.187.67.667.67 1.07v9.52z"/><path fill="#0E5595" d="M21.617 37.72c0 .407-.29.583-.663.396l-8.763-4.44c-.37-.188-.678-.67-.678-1.073v-9.518c0-.406.312-.58.684-.393l8.752 4.44c.373.187.67.67.67 1.073v9.516z"/><path fill="#06447C" d="M33.21 43.61c0 .407-.29.583-.662.396l-8.763-4.44c-.372-.19-.68-.67-.68-1.075v-9.516c0-.402.313-.578.685-.39l8.752 4.438c.373.188.67.67.67 1.074v9.515z"/><path fill="#0E5595" d="M21.623 63.2c0 .402-.302.578-.674.39l-8.758-4.494c-.372-.188-.675-.668-.675-1.07v-9.488c0-.406.303-.582.675-.39l8.757 4.437c.37.188.673.668.673 1.074v9.54z"/><path fill="#06447C" d="M33.233 69.15c0 .4-.302.577-.674.39l-8.76-4.488c-.37-.188-.672-.668-.672-1.07v-9.52c0-.405.302-.577.673-.39l8.76 4.438c.37.188.673.668.673 1.074v9.565z"/><path fill="#1268B3" d="M10.126 57.31c0 .407-.302.583-.675.396l-8.756-4.48C.322 53.038.02 52.55.02 52.144v-9.52c0-.402.302-.578.674-.39l8.757 4.44c.374.188.676.668.676 1.074v9.563z"/><path fill="#006CB7" d="M34.66 69.036c0 .406.3.578.673.39l8.757-4.437c.372-.19.674-.67.674-1.075v-9.52c0-.4-.302-.577-.674-.39l-8.757 4.44c-.372.19-.674.67-.674 1.07v9.52z"/><path fill="#0083CA" d="M57.833 57.225c0 .406.3.578.674.39l8.756-4.437c.372-.188.66-.668.66-1.074l-.016-9.52c0-.402-.272-.578-.645-.39l-8.756 4.44c-.373.188-.674.668-.674 1.07v9.52z"/><path fill="none" d="M-219.5-184.5h700v440.333h-700z"/></svg>